<svg width="1200" height="900" viewBox="0 0 1200 900" fill="none" xmlns="http://www.w3.org/2000/svg">
  <rect width="1200" height="900" fill="#2D4059"/>
  <rect x="70" y="70" width="1060" height="760" rx="40" fill="#EA5455"/>
  <rect x="120" y="120" width="960" height="640" rx="32" fill="#24354A"/>
  <text x="130" y="150" fill="white" font-size="64" font-family="Inter, Arial, sans-serif" font-weight="700">Color Hanoi</text>
  <text x="130" y="205" fill="#FFD460" font-size="30" font-family="Inter, Arial, sans-serif">색 조건이 있는 퍼즐 변형작</text>
  <rect x="312" y="260" width="16" height="390" fill="#FFD460"/>
  <rect x="552" y="260" width="16" height="390" fill="#FFD460"/>
  <rect x="792" y="260" width="16" height="390" fill="#FFD460"/>
  <rect x="230" y="650" width="180" height="20" rx="10" fill="#FFD460"/>
  <rect x="470" y="650" width="180" height="20" rx="10" fill="#FFD460"/>
  <rect x="710" y="650" width="180" height="20" rx="10" fill="#FFD460"/>
  <rect x="235" y="560" width="170" height="34" rx="14" fill="#FF6B6B"/>
  <rect x="260" y="500" width="120" height="34" rx="14" fill="#FFD460"/>
  <rect x="495" y="590" width="130" height="34" rx="14" fill="#4ECDC4"/>
  <rect x="515" y="530" width="90" height="34" rx="14" fill="#FFD460"/>
  <rect x="755" y="610" width="90" height="34" rx="14" fill="#FF6B6B"/>
</svg>